{
    "patcher": {
        "fileversion": 1,
        "appversion": {
            "major": 9,
            "minor": 1,
            "revision": 2,
            "architecture": "x64",
            "modernui": 1
        },
        "classnamespace": "box",
        "rect": [ 0.0, -30.0, 1007.9999999999999, 730.0 ],
        "style": "my default patcher",
        "boxes": [
            {
                "box": {
                    "bgmode": 0,
                    "border": 0,
                    "clickthrough": 0,
                    "enablehscroll": 0,
                    "enablevscroll": 0,
                    "extract": 1,
                    "id": "obj-26",
                    "lockeddragscroll": 0,
                    "lockedsize": 0,
                    "maxclass": "bpatcher",
                    "name": "bp.Compressor.maxpat",
                    "numinlets": 2,
                    "numoutlets": 2,
                    "offset": [ 0.0, 0.0 ],
                    "outlettype": [ "signal", "signal" ],
                    "patching_rect": [ 1027.0, 585.0, 339.0, 116.0 ],
                    "varname": "bp.Compressor",
                    "viewvisibility": 1
                }
            },
            {
                "box": {
                    "id": "obj-24",
                    "maxclass": "newobj",
                    "numinlets": 2,
                    "numoutlets": 2,
                    "outlettype": [ "multichannelsignal", "multichannelsignal" ],
                    "patching_rect": [ 809.0, 623.0, 80.0, 24.0 ],
                    "text": "mc.gate~ 2"
                }
            },
            {
                "box": {
                    "id": "obj-22",
                    "maxclass": "newobj",
                    "numinlets": 3,
                    "numoutlets": 1,
                    "outlettype": [ "multichannelsignal" ],
                    "patching_rect": [ 826.0, 714.0, 109.0, 24.0 ],
                    "text": "mc.selector~ 2"
                }
            },
            {
                "box": {
                    "id": "obj-12",
                    "maxclass": "newobj",
                    "numinlets": 2,
                    "numoutlets": 1,
                    "outlettype": [ "signal" ],
                    "patching_rect": [ 762.0, 337.0, 29.5, 24.0 ],
                    "text": "*~"
                }
            },
            {
                "box": {
                    "id": "obj-10",
                    "maxclass": "newobj",
                    "numinlets": 2,
                    "numoutlets": 1,
                    "outlettype": [ "signal" ],
                    "patching_rect": [ 735.0, 386.0, 29.5, 24.0 ],
                    "text": "+~"
                }
            },
            {
                "box": {
                    "id": "obj-9",
                    "maxclass": "newobj",
                    "numinlets": 2,
                    "numoutlets": 1,
                    "outlettype": [ "signal" ],
                    "patching_rect": [ 715.0, 293.0, 59.0, 24.0 ],
                    "text": "phasor~"
                }
            },
            {
                "box": {
                    "id": "obj-7",
                    "maxclass": "newobj",
                    "numinlets": 2,
                    "numoutlets": 1,
                    "outlettype": [ "int" ],
                    "patching_rect": [ 601.34, 396.95, 30.0, 24.0 ],
                    "text": "+ 1"
                }
            },
            {
                "box": {
                    "id": "obj-6",
                    "maxclass": "newobj",
                    "numinlets": 3,
                    "numoutlets": 1,
                    "outlettype": [ "signal" ],
                    "patching_rect": [ 826.0, 480.0, 88.0, 24.0 ],
                    "text": "selector~ 2"
                }
            },
            {
                "box": {
                    "id": "obj-4",
                    "maxclass": "comment",
                    "numinlets": 1,
                    "numoutlets": 0,
                    "patching_rect": [ 92.0, 401.0, 204.0, 22.0 ],
                    "text": "capture loop"
                }
            },
            {
                "box": {
                    "id": "obj-76",
                    "maxclass": "newobj",
                    "numinlets": 2,
                    "numoutlets": 1,
                    "outlettype": [ "signal" ],
                    "patching_rect": [ 189.0, 724.0875873565674, 52.0, 24.0 ],
                    "text": "+~ 100"
                }
            },
            {
                "box": {
                    "fontface": 0,
                    "fontname": "Fira Code Light Regular",
                    "fontsize": 12.0,
                    "id": "obj-75",
                    "maxclass": "number~",
                    "mode": 2,
                    "numinlets": 2,
                    "numoutlets": 2,
                    "outlettype": [ "signal", "float" ],
                    "patching_rect": [ 262.77372121810913, 708.0291932821274, 202.1897799372673, 24.0 ],
                    "sig": 0.0
                }
            },
            {
                "box": {
                    "id": "obj-74",
                    "maxclass": "newobj",
                    "numinlets": 2,
                    "numoutlets": 1,
                    "outlettype": [ "signal" ],
                    "patching_rect": [ 183.7, 657.62, 29.5, 24.0 ],
                    "text": "*~"
                }
            },
            {
                "box": {
                    "fontface": 0,
                    "fontname": "Fira Code Light Regular",
                    "fontsize": 12.0,
                    "id": "obj-72",
                    "maxclass": "number~",
                    "mode": 2,
                    "numinlets": 2,
                    "numoutlets": 2,
                    "outlettype": [ "signal", "float" ],
                    "patching_rect": [ 173.0, 585.0, 56.0, 24.0 ],
                    "sig": 0.0
                }
            },
            {
                "box": {
                    "id": "obj-71",
                    "maxclass": "newobj",
                    "numinlets": 1,
                    "numoutlets": 1,
                    "outlettype": [ "" ],
                    "patching_rect": [ 412.0, 257.0, 80.0, 24.0 ],
                    "text": "loadmess 0"
                }
            },
            {
                "box": {
                    "id": "obj-70",
                    "maxclass": "comment",
                    "numinlets": 1,
                    "numoutlets": 0,
                    "patching_rect": [ 140.0, 459.0, 150.0, 22.0 ],
                    "text": "recording"
                }
            },
            {
                "box": {
                    "id": "obj-68",
                    "maxclass": "toggle",
                    "numinlets": 1,
                    "numoutlets": 1,
                    "outlettype": [ "int" ],
                    "parameter_enable": 0,
                    "patching_rect": [ 114.0, 458.0, 24.0, 24.0 ]
                }
            },
            {
                "box": {
                    "id": "obj-66",
                    "maxclass": "newobj",
                    "numinlets": 2,
                    "numoutlets": 1,
                    "outlettype": [ "int" ],
                    "patching_rect": [ 114.0, 427.0, 37.0, 24.0 ],
                    "text": "!- 1"
                }
            },
            {
                "box": {
                    "id": "obj-19",
                    "maxclass": "newobj",
                    "numinlets": 3,
                    "numoutlets": 1,
                    "outlettype": [ "signal" ],
                    "patching_rect": [ 74.0, 519.0, 260.0, 24.0 ],
                    "text": "mc.record~ bufG 2 @loop 1 @append 1"
                }
            },
            {
                "box": {
                    "id": "obj-62",
                    "maxclass": "mc.ezdac~",
                    "numinlets": 1,
                    "numoutlets": 0,
                    "patching_rect": [ 814.0, 771.0, 45.0, 45.0 ]
                }
            },
            {
                "box": {
                    "id": "obj-57",
                    "maxclass": "newobj",
                    "numinlets": 1,
                    "numoutlets": 1,
                    "outlettype": [ "bang" ],
                    "patching_rect": [ 672.18, 170.19, 66.0, 24.0 ],
                    "text": "loadbang"
                }
            },
            {
                "box": {
                    "id": "obj-55",
                    "maxclass": "newobj",
                    "numinlets": 1,
                    "numoutlets": 4,
                    "outlettype": [ "multichannelsignal", "multichannelsignal", "", "" ],
                    "patching_rect": [ 826.0, 546.0, 174.0, 24.0 ],
                    "text": "mc.play~ bufG 2 @loop 1"
                }
            },
            {
                "box": {
                    "id": "obj-54",
                    "maxclass": "newobj",
                    "numinlets": 1,
                    "numoutlets": 10,
                    "outlettype": [ "float", "list", "float", "float", "float", "float", "float", "", "int", "" ],
                    "patching_rect": [ 679.8, 202.0, 113.5, 24.0 ],
                    "text": "info~ bufB"
                }
            },
            {
                "box": {
                    "buffername": "bufB",
                    "id": "obj-36",
                    "maxclass": "waveform~",
                    "numinlets": 5,
                    "numoutlets": 6,
                    "outlettype": [ "float", "float", "float", "float", "list", "" ],
                    "patching_rect": [ 850.0, 189.0, 256.0, 64.0 ]
                }
            },
            {
                "box": {
                    "attr": "buffername",
                    "id": "obj-37",
                    "maxclass": "attrui",
                    "numinlets": 1,
                    "numoutlets": 1,
                    "outlettype": [ "" ],
                    "parameter_enable": 0,
                    "patching_rect": [ 850.0, 159.0, 150.0, 24.0 ]
                }
            },
            {
                "box": {
                    "buffername": "bufG",
                    "id": "obj-34",
                    "maxclass": "waveform~",
                    "numinlets": 5,
                    "numoutlets": 6,
                    "outlettype": [ "float", "float", "float", "float", "list", "" ],
                    "patching_rect": [ 849.57, 78.64, 256.0, 64.0 ]
                }
            },
            {
                "box": {
                    "id": "obj-32",
                    "maxclass": "comment",
                    "numinlets": 1,
                    "numoutlets": 0,
                    "patching_rect": [ 489.0, 14.0, 150.0, 22.0 ],
                    "text": "define buffers"
                }
            },
            {
                "box": {
                    "id": "obj-18",
                    "maxclass": "newobj",
                    "numinlets": 1,
                    "numoutlets": 2,
                    "outlettype": [ "float", "bang" ],
                    "patching_rect": [ 481.0, 110.0, 268.0, 24.0 ],
                    "text": "buffer~ bufB 30000 2 @format float32"
                }
            },
            {
                "box": {
                    "id": "obj-8",
                    "maxclass": "comment",
                    "numinlets": 1,
                    "numoutlets": 0,
                    "patching_rect": [ 438.0, 285.0, 65.0, 22.0 ],
                    "text": "effect"
                }
            },
            {
                "box": {
                    "id": "obj-5",
                    "maxclass": "toggle",
                    "numinlets": 1,
                    "numoutlets": 1,
                    "outlettype": [ "int" ],
                    "parameter_enable": 0,
                    "patching_rect": [ 412.0, 284.0, 24.0, 24.0 ]
                }
            },
            {
                "box": {
                    "id": "obj-2",
                    "maxclass": "mc.ezadc~",
                    "numinlets": 1,
                    "numoutlets": 1,
                    "outlettype": [ "multichannelsignal" ],
                    "patching_rect": [ 65.99, 59.51, 45.0, 45.0 ]
                }
            },
            {
                "box": {
                    "id": "obj-1",
                    "maxclass": "newobj",
                    "numinlets": 1,
                    "numoutlets": 2,
                    "outlettype": [ "float", "bang" ],
                    "patching_rect": [ 481.0, 80.50999999999999, 268.0, 24.0 ],
                    "text": "buffer~ bufG 30000 2 @format float32"
                }
            },
            {
                "box": {
                    "attr": "size",
                    "id": "obj-17",
                    "maxclass": "attrui",
                    "numinlets": 1,
                    "numoutlets": 1,
                    "outlettype": [ "" ],
                    "parameter_enable": 0,
                    "patching_rect": [ 481.0, 34.50999999999999, 178.0, 24.0 ]
                }
            },
            {
                "box": {
                    "attr": "buffername",
                    "id": "obj-35",
                    "maxclass": "attrui",
                    "numinlets": 1,
                    "numoutlets": 1,
                    "outlettype": [ "" ],
                    "parameter_enable": 0,
                    "patching_rect": [ 850.0, 49.0, 150.0, 24.0 ]
                }
            },
            {
                "box": {
                    "attr": "frequency",
                    "id": "obj-11",
                    "maxclass": "attrui",
                    "numinlets": 1,
                    "numoutlets": 1,
                    "outlettype": [ "" ],
                    "parameter_enable": 0,
                    "patching_rect": [ 792.0, 246.0, 150.0, 24.0 ]
                }
            },
            {
                "box": {
                    "id": "obj-13",
                    "maxclass": "message",
                    "numinlets": 2,
                    "numoutlets": 1,
                    "outlettype": [ "" ],
                    "patching_rect": [ 601.34, 257.0, 44.0, 24.0 ],
                    "text": "reset"
                }
            }
        ],
        "lines": [
            {
                "patchline": {
                    "destination": [ "obj-6", 2 ],
                    "source": [ "obj-10", 0 ]
                }
            },
            {
                "patchline": {
                    "destination": [ "obj-9", 0 ],
                    "source": [ "obj-11", 0 ]
                }
            },
            {
                "patchline": {
                    "destination": [ "obj-10", 0 ],
                    "source": [ "obj-12", 0 ]
                }
            },
            {
                "patchline": {
                    "destination": [ "obj-9", 0 ],
                    "source": [ "obj-13", 0 ]
                }
            },
            {
                "patchline": {
                    "destination": [ "obj-1", 0 ],
                    "order": 1,
                    "source": [ "obj-17", 0 ]
                }
            },
            {
                "patchline": {
                    "destination": [ "obj-18", 0 ],
                    "order": 0,
                    "source": [ "obj-17", 0 ]
                }
            },
            {
                "patchline": {
                    "destination": [ "obj-72", 0 ],
                    "order": 1,
                    "source": [ "obj-19", 0 ]
                }
            },
            {
                "patchline": {
                    "destination": [ "obj-74", 0 ],
                    "order": 0,
                    "source": [ "obj-19", 0 ]
                }
            },
            {
                "patchline": {
                    "destination": [ "obj-19", 0 ],
                    "source": [ "obj-2", 0 ]
                }
            },
            {
                "patchline": {
                    "destination": [ "obj-62", 0 ],
                    "source": [ "obj-22", 0 ]
                }
            },
            {
                "patchline": {
                    "destination": [ "obj-22", 1 ],
                    "source": [ "obj-24", 0 ]
                }
            },
            {
                "patchline": {
                    "destination": [ "obj-26", 0 ],
                    "source": [ "obj-24", 1 ]
                }
            },
            {
                "patchline": {
                    "destination": [ "obj-22", 2 ],
                    "source": [ "obj-26", 0 ]
                }
            },
            {
                "patchline": {
                    "destination": [ "obj-34", 0 ],
                    "source": [ "obj-35", 0 ]
                }
            },
            {
                "patchline": {
                    "destination": [ "obj-36", 0 ],
                    "source": [ "obj-37", 0 ]
                }
            },
            {
                "patchline": {
                    "destination": [ "obj-13", 0 ],
                    "order": 1,
                    "source": [ "obj-5", 0 ]
                }
            },
            {
                "patchline": {
                    "destination": [ "obj-66", 0 ],
                    "order": 2,
                    "source": [ "obj-5", 0 ]
                }
            },
            {
                "patchline": {
                    "destination": [ "obj-7", 0 ],
                    "order": 0,
                    "source": [ "obj-5", 0 ]
                }
            },
            {
                "patchline": {
                    "destination": [ "obj-11", 0 ],
                    "order": 0,
                    "source": [ "obj-54", 6 ]
                }
            },
            {
                "patchline": {
                    "destination": [ "obj-12", 1 ],
                    "order": 1,
                    "source": [ "obj-54", 6 ]
                }
            },
            {
                "patchline": {
                    "destination": [ "obj-74", 1 ],
                    "order": 2,
                    "source": [ "obj-54", 6 ]
                }
            },
            {
                "patchline": {
                    "destination": [ "obj-24", 1 ],
                    "source": [ "obj-55", 0 ]
                }
            },
            {
                "patchline": {
                    "destination": [ "obj-54", 0 ],
                    "source": [ "obj-57", 0 ]
                }
            },
            {
                "patchline": {
                    "destination": [ "obj-55", 0 ],
                    "source": [ "obj-6", 0 ]
                }
            },
            {
                "patchline": {
                    "destination": [ "obj-68", 0 ],
                    "source": [ "obj-66", 0 ]
                }
            },
            {
                "patchline": {
                    "destination": [ "obj-19", 0 ],
                    "source": [ "obj-68", 0 ]
                }
            },
            {
                "patchline": {
                    "destination": [ "obj-22", 0 ],
                    "order": 0,
                    "source": [ "obj-7", 0 ]
                }
            },
            {
                "patchline": {
                    "destination": [ "obj-24", 0 ],
                    "order": 2,
                    "source": [ "obj-7", 0 ]
                }
            },
            {
                "patchline": {
                    "destination": [ "obj-6", 0 ],
                    "order": 1,
                    "source": [ "obj-7", 0 ]
                }
            },
            {
                "patchline": {
                    "destination": [ "obj-5", 0 ],
                    "source": [ "obj-71", 0 ]
                }
            },
            {
                "patchline": {
                    "destination": [ "obj-75", 0 ],
                    "order": 0,
                    "source": [ "obj-74", 0 ]
                }
            },
            {
                "patchline": {
                    "destination": [ "obj-76", 0 ],
                    "order": 1,
                    "source": [ "obj-74", 0 ]
                }
            },
            {
                "patchline": {
                    "destination": [ "obj-10", 1 ],
                    "order": 1,
                    "source": [ "obj-76", 0 ]
                }
            },
            {
                "patchline": {
                    "destination": [ "obj-6", 1 ],
                    "order": 0,
                    "source": [ "obj-76", 0 ]
                }
            },
            {
                "patchline": {
                    "destination": [ "obj-12", 0 ],
                    "source": [ "obj-9", 0 ]
                }
            }
        ],
        "parameters": {
            "obj-26::obj-12": [ "Bypass", "Bypass", 0 ],
            "obj-26::obj-15::obj-2": [ "pastebang", "pastebang", 0 ],
            "obj-26::obj-2": [ "Output", "Output", 0 ],
            "obj-26::obj-28": [ "Attack", "Attack", 0 ],
            "obj-26::obj-34": [ "slider[3]", "slider[3]", 0 ],
            "obj-26::obj-35": [ "slider[2]", "slider[2]", 0 ],
            "obj-26::obj-44": [ "Input", "Input", 0 ],
            "obj-26::obj-47": [ "Release", "Release", 0 ],
            "obj-26::obj-52": [ "Threshold", "Threshold", 0 ],
            "obj-26::obj-78": [ "Ratio", "Ratio", 0 ],
            "parameterbanks": {
                "0": {
                    "index": 0,
                    "name": "",
                    "parameters": [ "-", "-", "-", "-", "-", "-", "-", "-" ],
                    "buttons": [ "-", "-", "-", "-", "-", "-", "-", "-" ]
                }
            },
            "inherited_shortname": 1
        },
        "autosave": 0,
        "styles": [
            {
                "name": "my default patcher",
                "default": {
                    "fontname": [ "Fira Code Light Regular" ]
                },
                "parentstyle": "",
                "multi": 0
            }
        ]
    }
}